<?xml version="1.0" encoding="utf-8"?>
<!-- Generator: Adobe Illustrator 23.1.1, SVG Export Plug-In . SVG Version: 6.00 Build 0)  -->
<svg version="1.1" id="Layer_1" xmlns="http://www.w3.org/2000/svg" xmlns:xlink="http://www.w3.org/1999/xlink" x="0px" y="0px"
	 viewBox="0 0 15 40" style="enable-background:new 0 0 15 40;" xml:space="preserve">
<style type="text/css">
	.st0{enable-background:new    ;}
	.st1{fill:#412524;}
</style>
<g class="st0">
	<path class="st1" d="M13.1,21.7L2.7,32.1c-0.1,0.1-0.3,0.2-0.5,0.2s-0.4-0.1-0.5-0.2l-1.1-1.1c-0.1-0.1-0.2-0.3-0.2-0.5
		c0-0.2,0.1-0.4,0.2-0.5l8.8-8.8l-8.8-8.8c-0.1-0.1-0.2-0.3-0.2-0.5c0-0.2,0.1-0.4,0.2-0.5l1.1-1.1C1.8,10.1,2,10,2.1,10
		s0.4,0.1,0.5,0.2l10.4,10.4c0.1,0.1,0.2,0.3,0.2,0.5S13.2,21.5,13.1,21.7z"/>
</g>
</svg>
