<?xml version="1.0" encoding="utf-8"?>
<!-- Generator: Adobe Illustrator 23.1.1, SVG Export Plug-In . SVG Version: 6.00 Build 0)  -->
<svg version="1.1" id="Layer_1" xmlns="http://www.w3.org/2000/svg" xmlns:xlink="http://www.w3.org/1999/xlink" x="0px" y="0px"
	 viewBox="0 0 18.5 16.3" style="enable-background:new 0 0 18.5 16.3;" xml:space="preserve">
<style type="text/css">
	.st0{fill:#91342D;}
</style>
<g id="Check" transform="translate(-804.62 -1406.144)">
	<g id="Path_227">
		<path class="st0" d="M819.6,1422.4h-14c-0.6,0-1-0.4-1-1v-14c0-0.6,0.4-1,1-1h10.9c0.6,0,1,0.4,1,1s-0.4,1-1,1h-9.9v12h12v-4.3
			c0-0.6,0.4-1,1-1s1,0.4,1,1v5.3C820.6,1422,820.2,1422.4,819.6,1422.4z"/>
	</g>
	<g id="Path_228">
		<path class="st0" d="M813.9,1417l-3.5-3.5c-0.4-0.4-0.4-1,0-1.4c0.4-0.4,1-0.4,1.4,0l2.1,2l7.1-7.3c0.4-0.4,1-0.4,1.4,0
			c0.4,0.4,0.4,1,0,1.4L813.9,1417z"/>
	</g>
</g>
</svg>
