<?xml version="1.0" encoding="utf-8"?>
<!-- Generator: Adobe Illustrator 23.1.1, SVG Export Plug-In . SVG Version: 6.00 Build 0)  -->
<svg version="1.1" id="Layer_1" xmlns="http://www.w3.org/2000/svg" xmlns:xlink="http://www.w3.org/1999/xlink" x="0px" y="0px"
	 viewBox="0 0 14 16" style="enable-background:new 0 0 14 16;" xml:space="preserve">
<style type="text/css">
	.st0{enable-background:new    ;}
	.st1{fill:#E14628;}
</style>
<g class="st0">
	<path class="st1" d="M13,7.5v2c0,0.3-0.2,0.5-0.5,0.5H2c-0.2,0-0.4-0.1-0.5-0.2L0.4,8.7c-0.1-0.1-0.1-0.3,0-0.4l1.1-1.1
		C1.6,7.1,1.8,7,2,7h4V5.5h2V7h4.5C12.8,7,13,7.2,13,7.5z M13.6,3.7l-1.1,1.1C12.4,4.9,12.2,5,12,5H1.5C1.2,5,1,4.8,1,4.5v-2
		C1,2.2,1.2,2,1.5,2H6V1.5C6,1.2,6.2,1,6.5,1h1C7.8,1,8,1.2,8,1.5V2h4c0.2,0,0.4,0.1,0.5,0.2l1.1,1.1C13.7,3.4,13.7,3.6,13.6,3.7z
		 M8,10.5v4C8,14.8,7.8,15,7.5,15h-1C6.2,15,6,14.8,6,14.5v-4H8z"/>
</g>
</svg>
