<?xml version="1.0" encoding="utf-8"?>
<!-- Generator: Adobe Illustrator 23.1.1, SVG Export Plug-In . SVG Version: 6.00 Build 0)  -->
<svg version="1.1" id="Time" xmlns="http://www.w3.org/2000/svg" xmlns:xlink="http://www.w3.org/1999/xlink" x="0px" y="0px"
	 viewBox="0 0 13 14" style="enable-background:new 0 0 13 14;" xml:space="preserve">
<style type="text/css">
	.st0{enable-background:new    ;}
	.st1{fill:#E14628;}
</style>
<g class="st0">
	<path class="st1" d="M6.5,13c-3.3,0-6-2.7-6-6s2.7-6,6-6s6,2.7,6,6S9.8,13,6.5,13z M6.5,2.8C4.2,2.8,2.2,4.7,2.2,7s1.9,4.3,4.2,4.3
		s4.2-1.9,4.2-4.3S8.8,2.8,6.5,2.8z M7.5,7.8C7.5,7.9,7.4,8,7.2,8H4.8C4.6,8,4.5,7.9,4.5,7.8V7.3C4.5,7.1,4.6,7,4.8,7h1.8V4.3
		C6.5,4.1,6.6,4,6.8,4h0.5c0.1,0,0.2,0.1,0.2,0.2V7.8z"/>
</g>
</svg>
